<?xml version="1.0" encoding="UTF-8"?>
<svg width="108px" height="28px" viewBox="0 0 108 28" version="1.1" xmlns="http://www.w3.org/2000/svg" xmlns:xlink="http://www.w3.org/1999/xlink">
    <!-- Generator: Sketch 55 (78076) - https://sketchapp.com -->
    <title>logo_aikang</title>
    <desc>Created with Sketch.</desc>
    <g id="首页、用户" stroke="none" stroke-width="1" fill="none" fill-rule="evenodd">
        <g id="登录_1" transform="translate(-166.000000, -98.000000)" fill="#FC7D3D">
            <g id="logo_aikang" transform="translate(166.000000, 98.000000)">
                <path d="M75.6986725,13.3215652 L72.1780435,13.3215652 L72.1780435,11.9139657 L76.277547,11.9139657 C76.5326706,11.1908998 76.6355609,10.7180287 76.6355609,10.7180287 L78.8824936,10.7180287 C78.7882715,11.132931 78.673474,11.5314996 78.5414912,11.9139657 L86.9580764,11.9139657 L86.9580764,13.3215652 L77.9485226,13.3215652 C77.7631966,13.6915149 77.5628264,14.0428731 77.351738,14.3759345 L85.7612367,14.3759345 L85.7612367,15.713451 C85.7612367,15.713451 84.795566,17.5156545 82.4333294,19.118682 C83.6668736,19.5413997 85.1703206,19.8851063 86.9578151,20.0439637 L86.9578151,21.4245991 C86.9578151,21.4245991 83.8507964,21.5224812 80.5484953,20.1817779 C78.9188034,20.933897 76.857952,21.4942964 74.2993376,21.5536232 L74.2993376,20.217532 C74.2993376,20.217532 76.3697828,20.1662844 78.6474956,19.2408217 C77.5407776,18.5812079 76.4756534,17.7230704 75.5649924,16.6068499 C73.8327983,18.3564161 72.1283915,19.1740791 72.1283915,19.1740791 L72.1283915,17.7670735 C73.8828371,16.5443843 75.0102045,14.7794756 75.6986725,13.3215652 Z M76.2003946,15.920968 C76.0303686,16.1173879 75.8585924,16.3044975 75.6867033,16.4824084 L78.0421864,16.4782824 C78.0421864,16.4782824 78.2481592,16.6458877 78.5825383,16.9705265 C78.9900162,17.3631798 79.622232,17.8334824 80.4913955,18.2900752 C81.4070843,17.6994012 82.2744254,16.9280754 82.9686067,15.920968 L76.2003946,15.920968 Z M74.5335852,8.88927774 L74.2992664,7.41525375 L76.3183699,7.41525375 L76.6192353,8.88927774 L78.882458,8.88927774 L78.9015149,8.88927774 L78.6679921,7.41525375 L80.685789,7.41525375 L80.9874519,8.88927774 L82.5603909,8.88927774 L83.049602,8.88927774 L83.3513787,7.41525375 L85.3700071,7.41525375 L85.1364844,8.88927774 L86.9213363,8.88927774 L86.9213363,11.2810091 L84.8085115,11.2810091 L84.8085115,10.2273882 L74.2510397,10.2273882 L74.2510397,11.2810091 L72.2090107,11.2810091 L72.2090107,8.88927774 L74.4558247,8.88927774 L74.5335852,8.88927774 Z M72.479258,7.07362874 L72.479258,5.48321942 L81.2665991,5.48321942 C83.126531,5.52930792 84.8993938,5.31941522 86.5800795,4.85033416 L86.5800795,6.51106406 C84.9437005,6.93108701 83.2867717,7.11900452 81.6063235,7.07362874 L72.479258,7.07362874 Z M101.571906,13.8368298 C102.241258,13.8850564 102.551761,13.545332 102.505435,12.8192007 L102.505435,12.600993 L99.5138407,12.600993 L99.5138407,13.8368298 L101.571906,13.8368298 Z M99.5137219,11.219051 L102.505435,11.219051 L102.505435,10.0562669 L99.5137219,10.0562669 L99.5137219,11.219051 Z M92.9573964,11.2194074 L97.4326127,11.2194074 L97.4326127,10.0562669 L93.3415463,10.0562669 L93.3415463,8.67741322 L97.4326127,8.67741322 L97.4326127,7.73236157 L99.5138407,7.73236157 L99.5138407,8.67741322 L104.106654,8.67741322 L104.106654,11.2194074 L105.326811,11.2194074 L105.326811,12.600993 L104.106654,12.600993 L104.106654,13.0365768 C104.153693,14.5390854 103.435401,15.2674736 101.954511,15.2167525 L99.5138407,15.2167525 L99.5138407,15.5082503 L99.5138407,17.97933 L99.5138407,19.2869127 C99.5601667,20.7881147 98.8190685,21.5141272 97.2897146,21.4674448 L95.9252339,21.4674448 L95.9252339,20.0866906 L96.5710667,20.0866906 C97.1920735,20.1344421 97.4801266,19.8423503 97.4326127,19.2142165 L97.4326127,15.2167525 L93.1979355,15.2167525 L93.1979355,13.8368298 L97.4326127,13.8368298 L97.4326127,12.600993 L92.9573964,12.600993 L92.9573964,11.2194074 Z M92.4802379,12.600993 L92.4802379,13.545332 C92.4802379,15.7746846 92.2401739,17.4217542 91.7640845,18.4884415 C91.3326582,19.5525155 90.8170135,20.5961585 89.4749832,21.6129562 L89.4749832,19.9410605 C90.3855872,18.6817043 90.7927814,16.6965732 90.6965658,13.9824599 L90.6965658,5.98765084 L97.2929218,5.98765084 L97.2929218,4.91870667 L99.3704674,4.91870667 L99.3704674,5.98765084 L105.030324,5.98765084 L105.030324,7.44015103 L92.4802379,7.44015103 L92.4802379,11.2194074 L92.4802379,12.600993 Z M93.2293541,15.8447438 L96.9473175,15.8447438 L96.9473175,17.1307078 C96.9473175,17.1307078 97.1611301,20.020385 92.367333,21.0061798 L92.3305097,19.8346056 C92.3305097,19.8346056 95.3124826,18.9924215 95.2048636,17.1721637 L93.2293541,17.2025726 L93.2293541,15.8447438 Z M103.856529,15.8447438 L103.856529,17.2025726 L101.882563,17.1721637 C101.774232,18.9924215 104.756442,19.8346056 104.756442,19.8346056 L104.718194,21.0061798 C99.9249904,20.020385 100.139516,17.1307078 100.139516,17.1307078 L100.139516,15.8447438 L103.856529,15.8447438 Z M23.625136,21.3090097 L17.782707,12.2051072 L17.7316296,12.2051072 L17.7316296,21.3090097 L14.1664234,21.3090097 L14.1664234,3 L17.7316296,3 L17.7316296,11.2954534 L17.782707,11.2954534 L23.5239314,3 L27.5445584,3 L21.3995846,11.7500427 L27.6723708,21.3090097 L23.625136,21.3090097 Z M35.9287559,14.7341537 C33.3998281,14.8603032 31.1742766,15.0887263 31.1742766,17.136457 C31.1742766,18.4269347 32.1857289,19.1599556 33.9816359,19.1599556 C34.7157258,19.1599556 35.574896,19.0336874 35.9287559,18.8830683 L35.9287559,14.7341537 Z M34.0822466,21.613455 C29.9853598,21.613455 27.9372727,19.9939435 27.9372727,17.2140234 C27.9372727,13.4953473 31.8065679,12.761495 35.9287559,12.5337846 L35.9287559,11.8264213 C35.9287559,10.4102692 34.942961,9.87823225 33.3746457,9.87823225 C32.0847618,9.87823225 30.515615,10.2832883 29.5557153,10.6876317 L28.6958323,8.36123192 C29.8337904,7.88074751 31.7809104,7.37531831 33.754163,7.37531831 C37.2434657,7.37531831 39.1909421,8.74134319 39.1909421,12.2307647 L39.1909421,20.6265912 C38.1803212,21.1587469 36.1308088,21.613455 34.0822466,21.613455 Z M49.6109917,21.3090097 L49.6109917,12.3325632 C49.6109917,10.9665383 48.7761724,10.1307687 47.2084509,10.1307687 C46.3990515,10.1307687 45.6143593,10.2825756 45.1595324,10.4607528 L45.1595324,21.3090097 L41.7210696,21.3090097 L41.7210696,8.36123192 C43.1619289,7.77930532 44.9067584,7.3746056 47.1578486,7.3746056 C51.204727,7.3746056 53.0748745,9.043888 53.0748745,11.9775155 L53.0748745,21.3090097 L49.6109917,21.3090097 Z M63.3593908,10.3088389 C63.0057685,10.1563193 62.3726456,10.0307638 61.6645696,10.0307638 C59.7681707,10.0307638 58.4276846,11.2954652 58.4276846,14.1529517 C58.4276846,16.8341616 59.6668473,18.1736975 61.5632462,18.1736975 C62.1960127,18.1736975 62.9542159,17.9970645 63.3593908,17.7944177 L63.3593908,10.3088389 Z M60.7550346,27 C58.5799667,27 56.8095984,26.544698 55.5693666,25.9384205 L56.5563493,23.2327409 C57.4669533,23.7127502 58.884412,24.0664913 60.4003433,24.0664913 C62.4244358,24.0664913 63.3593908,23.0304505 63.3593908,21.133814 L63.3593908,20.2986383 C62.7020358,20.6016582 61.7154095,20.7780536 60.8311757,20.7780536 C57.3664614,20.7780536 54.9887466,18.3769382 54.9887466,14.2788636 C54.9887466,9.67595366 57.6944262,7.37533018 61.9684211,7.37533018 C63.8905963,7.37533018 65.6609645,7.80378686 66.7733839,8.36076866 L66.7733839,21.133814 C66.7733839,24.9772141 64.4215642,27 60.7550346,27 Z M7.99374895,7.42181067 C7.80488116,7.42181067 7.62587251,7.37999843 7.46206831,7.29993749 C7.06782165,7.10596196 6.81029626,6.7132595 6.73712484,6.19226949 C6.67013023,5.71641769 6.76824645,5.18152986 7.0112801,4.68655371 C7.411466,3.87121503 8.13973544,3.32373602 8.82251031,3.32373602 C9.01173445,3.32373602 9.19098067,3.36471677 9.3553788,3.4456092 C9.74938789,3.63851567 10.0066757,4.03145569 10.079372,4.55220813 C10.146129,5.02782236 10.0487255,5.56294776 9.80569187,6.05839905 C9.40657503,6.8731438 8.67806803,7.42181067 7.99374895,7.42181067 Z M4.82790908,21.9798467 C4.74523487,21.9798467 4.66220432,21.9761644 4.57869862,21.969156 C4.02064776,21.9216421 3.60359443,21.8165176 3.00171199,21.3979201 C2.80844916,21.2853121 1.76409344,20.5109542 2.15632076,17.566636 C2.17580146,17.4401302 2.36158085,16.3116749 3.2036461,13.9799298 C3.21314888,13.954985 3.33502206,13.6524402 3.60822703,13.0238312 C3.58019383,13.0328588 3.55049763,13.0405798 3.52127658,13.0488948 C3.24605226,13.1196905 2.86404043,13.1668481 2.57194868,13.1668481 C2.48345402,13.1668481 2.4048185,13.1620967 2.34103108,13.1535442 L2,13.1082872 L2.34958359,11.5772702 L2.49628278,11.5146707 C2.98781417,11.3046592 3.36887572,11.0881145 3.3729144,11.0858576 C4.00639359,10.7918653 4.60376221,10.27824 5.13021632,9.82471971 C5.82522603,9.22687595 6.42485156,8.71123125 7.01438038,8.71123125 C7.16654367,8.71123125 7.31110474,8.74639154 7.44438126,8.814574 C8.22669777,9.21820466 7.88447884,10.0118057 7.60972966,10.6484921 C7.56708593,10.7483901 7.52254164,10.8509014 7.4798979,10.955432 L7.46089234,10.9968878 C7.44723209,11.0268216 6.22980696,13.5950672 5.51840496,15.3235044 C4.12981097,18.7015057 4.96261101,19.2502914 4.97187622,19.2551616 L5.02841777,19.2745235 L5.05597584,19.3067142 C5.06476591,19.3140788 5.27762822,19.4878609 5.74492752,19.4878609 C6.20046712,19.4878609 6.72882179,19.3248882 7.31597492,19.0033379 C9.74702407,17.2992515 11.3725937,14.1292423 11.8926334,12.6889769 L12.0451531,12.2663407 L12.9909174,13.0600606 L12.9153703,13.2669836 C12.8230745,13.5160753 10.6409983,19.3747778 7.19588351,21.1699721 C6.95427529,21.3552763 5.9510191,21.9798467 4.82790908,21.9798467 Z" id="Combined-Shape"></path>
            </g>
        </g>
    </g>
</svg>